<mxfile host="app.diagrams.net" modified="2023-09-16T18:23:08.411Z" agent="Mozilla/5.0 (Windows NT 10.0; Win64; x64) AppleWebKit/537.36 (KHTML, like Gecko) Chrome/116.0.0.0 Safari/537.36" etag="BXdgbXlMQnyPNvyN25-n" version="21.7.4" type="github">
  <diagram name="PÃ¡gina-1" id="2ry5tGXKJn9GYqkvxmp8">
    <mxGraphModel dx="911" dy="460" grid="1" gridSize="10" guides="1" tooltips="1" connect="1" arrows="1" fold="1" page="1" pageScale="1" pageWidth="827" pageHeight="1169" math="0" shadow="0">
      <root>
        <mxCell id="0" />
        <mxCell id="1" parent="0" />
        <mxCell id="ICQEcUkC6jx3Jm0bSlPK-3" value="" style="edgeStyle=orthogonalEdgeStyle;rounded=0;orthogonalLoop=1;jettySize=auto;html=1;" edge="1" parent="1" source="ICQEcUkC6jx3Jm0bSlPK-1" target="ICQEcUkC6jx3Jm0bSlPK-2">
          <mxGeometry relative="1" as="geometry" />
        </mxCell>
        <mxCell id="ICQEcUkC6jx3Jm0bSlPK-1" value="Inicio" style="strokeWidth=2;html=1;shape=mxgraph.flowchart.start_1;whiteSpace=wrap;" vertex="1" parent="1">
          <mxGeometry x="340" y="20" width="74" height="40" as="geometry" />
        </mxCell>
        <mxCell id="ICQEcUkC6jx3Jm0bSlPK-5" value="" style="edgeStyle=orthogonalEdgeStyle;rounded=0;orthogonalLoop=1;jettySize=auto;html=1;" edge="1" parent="1" source="ICQEcUkC6jx3Jm0bSlPK-2" target="ICQEcUkC6jx3Jm0bSlPK-4">
          <mxGeometry relative="1" as="geometry" />
        </mxCell>
        <mxCell id="ICQEcUkC6jx3Jm0bSlPK-2" value="Qual a Placa ?" style="html=1;strokeWidth=2;shape=manualInput;whiteSpace=wrap;rounded=1;size=26;arcSize=11;" vertex="1" parent="1">
          <mxGeometry x="328.5" y="90" width="97" height="60" as="geometry" />
        </mxCell>
        <mxCell id="ICQEcUkC6jx3Jm0bSlPK-4" value="Placa 1" style="strokeWidth=2;html=1;shape=mxgraph.flowchart.decision;whiteSpace=wrap;" vertex="1" parent="1">
          <mxGeometry x="342" y="190" width="70" height="70" as="geometry" />
        </mxCell>
        <mxCell id="ICQEcUkC6jx3Jm0bSlPK-13" value="Placa 2" style="strokeWidth=2;html=1;shape=mxgraph.flowchart.decision;whiteSpace=wrap;" vertex="1" parent="1">
          <mxGeometry x="342" y="280" width="70" height="70" as="geometry" />
        </mxCell>
        <mxCell id="ICQEcUkC6jx3Jm0bSlPK-14" value="Placa 3" style="strokeWidth=2;html=1;shape=mxgraph.flowchart.decision;whiteSpace=wrap;" vertex="1" parent="1">
          <mxGeometry x="344" y="360" width="70" height="70" as="geometry" />
        </mxCell>
        <mxCell id="ICQEcUkC6jx3Jm0bSlPK-15" value="Placa 4" style="strokeWidth=2;html=1;shape=mxgraph.flowchart.decision;whiteSpace=wrap;" vertex="1" parent="1">
          <mxGeometry x="340" y="450" width="70" height="70" as="geometry" />
        </mxCell>
        <mxCell id="ICQEcUkC6jx3Jm0bSlPK-16" value="Placa 5" style="strokeWidth=2;html=1;shape=mxgraph.flowchart.decision;whiteSpace=wrap;" vertex="1" parent="1">
          <mxGeometry x="328.5" y="540" width="70" height="70" as="geometry" />
        </mxCell>
        <mxCell id="ICQEcUkC6jx3Jm0bSlPK-17" value="Placa 6" style="strokeWidth=2;html=1;shape=mxgraph.flowchart.decision;whiteSpace=wrap;" vertex="1" parent="1">
          <mxGeometry x="340" y="620" width="70" height="70" as="geometry" />
        </mxCell>
        <mxCell id="ICQEcUkC6jx3Jm0bSlPK-18" value="Placa 7" style="strokeWidth=2;html=1;shape=mxgraph.flowchart.decision;whiteSpace=wrap;" vertex="1" parent="1">
          <mxGeometry x="342" y="720" width="70" height="70" as="geometry" />
        </mxCell>
        <mxCell id="ICQEcUkC6jx3Jm0bSlPK-19" value="Placa 8" style="strokeWidth=2;html=1;shape=mxgraph.flowchart.decision;whiteSpace=wrap;" vertex="1" parent="1">
          <mxGeometry x="342" y="800" width="70" height="70" as="geometry" />
        </mxCell>
        <mxCell id="ICQEcUkC6jx3Jm0bSlPK-20" value="Placa 9" style="strokeWidth=2;html=1;shape=mxgraph.flowchart.decision;whiteSpace=wrap;" vertex="1" parent="1">
          <mxGeometry x="342" y="880" width="70" height="70" as="geometry" />
        </mxCell>
        <mxCell id="ICQEcUkC6jx3Jm0bSlPK-21" value="Placa 0" style="strokeWidth=2;html=1;shape=mxgraph.flowchart.decision;whiteSpace=wrap;" vertex="1" parent="1">
          <mxGeometry x="352" y="970" width="70" height="70" as="geometry" />
        </mxCell>
      </root>
    </mxGraphModel>
  </diagram>
</mxfile>
